# xmcd
#
# Track frame offsets:
#	150
#	14266
#	39795
#	64922
#	84457
#	111998
#	131959
#	149128
#	172937
#	194637
#	213888
#	235735
#	267052
#
# Disc length: 3920 seconds
#
# Revision: 1
# Processed by: cddbd v1.5.2PL0 Copyright (c) Steve Scherf et al.
# Submitted via: audiograbber 1.83.01
#
DISCID=ba0f4e0d
DTITLE=Paul Price - Double Talk
DYEAR=2002
DGENRE=Blues
TTITLE0=Afternoon In Paris
TTITLE1=Gentle Rain
TTITLE2=All Blues
TTITLE3=All Of Me
TTITLE4=Angel Eyes
TTITLE5=I Got Rhythm
TTITLE6=How Insensitive
TTITLE7=Cantaloupe Island
TTITLE8=Night And Day
TTITLE9=A Day In Vienna
TTITLE10=Moon River
TTITLE11=Double Talk
TTITLE12=Dos Manos
EXTD=
EXTT0=
EXTT1=
EXTT2=
EXTT3=
EXTT4=
EXTT5=
EXTT6=
EXTT7=
EXTT8=
EXTT9=
EXTT10=
EXTT11=
EXTT12=
PLAYORDER=
